<mxfile host="app.diagrams.net" modified="2023-11-07T06:58:17.476Z" agent="Mozilla/5.0 (Windows NT 10.0; Win64; x64) AppleWebKit/537.36 (KHTML, like Gecko) Chrome/119.0.0.0 Safari/537.36" version="22.0.8" etag="PIhtPPUv1JRteRiVWCXz" type="github">
  <diagram name="페이지-1" id="99SkjqC_UgQf3N9x2Mt7">
    <mxGraphModel>
      <root>
        <mxCell id="0" />
        <mxCell id="1" parent="0" />
      </root>
    </mxGraphModel>
  </diagram>
</mxfile>
